<mxfile host="Electron" agent="Mozilla/5.0 (Windows NT 10.0; Win64; x64) AppleWebKit/537.36 (KHTML, like Gecko) draw.io/28.0.4 Chrome/138.0.7204.97 Electron/37.2.1 Safari/537.36" version="28.0.4">
  <diagram name="Страница — 1" id="uPehsFi3BOpMjIWclGmZ">
    <mxGraphModel dx="1554" dy="922" grid="1" gridSize="10" guides="1" tooltips="1" connect="1" arrows="1" fold="1" page="1" pageScale="1" pageWidth="827" pageHeight="1169" math="0" shadow="0">
      <root>
        <mxCell id="0" />
        <mxCell id="1" parent="0" />
        <mxCell id="82T3ZSNF6l1PIabwo_do-117" value="" style="shape=table;startSize=0;container=1;collapsible=0;childLayout=tableLayout;fontSize=11;strokeWidth=1;" parent="1" vertex="1">
          <mxGeometry x="14" y="20" width="800" height="720" as="geometry" />
        </mxCell>
        <mxCell id="82T3ZSNF6l1PIabwo_do-118" value="" style="shape=tableRow;horizontal=0;startSize=0;swimlaneHead=0;swimlaneBody=0;strokeColor=inherit;top=0;left=0;bottom=0;right=0;collapsible=0;dropTarget=0;fillColor=none;points=[[0,0.5],[1,0.5]];portConstraint=eastwest;fontSize=16;" parent="82T3ZSNF6l1PIabwo_do-117" vertex="1">
          <mxGeometry width="800" height="90" as="geometry" />
        </mxCell>
        <mxCell id="82T3ZSNF6l1PIabwo_do-119" value="" style="shape=partialRectangle;html=1;whiteSpace=wrap;connectable=0;strokeColor=inherit;overflow=hidden;fillColor=default;top=0;left=0;bottom=0;right=0;pointerEvents=1;fontSize=16;strokeWidth=0;" parent="82T3ZSNF6l1PIabwo_do-118" vertex="1">
          <mxGeometry width="115" height="90" as="geometry">
            <mxRectangle width="115" height="90" as="alternateBounds" />
          </mxGeometry>
        </mxCell>
        <mxCell id="82T3ZSNF6l1PIabwo_do-120" value="Продажи через кол-центр" style="shape=partialRectangle;html=1;whiteSpace=wrap;connectable=0;strokeColor=#666666;overflow=hidden;fillColor=#f5f5f5;top=0;left=0;bottom=0;right=0;pointerEvents=1;fontSize=14;fontColor=#333333;fontStyle=1" parent="82T3ZSNF6l1PIabwo_do-118" vertex="1">
          <mxGeometry x="115" width="113" height="90" as="geometry">
            <mxRectangle width="113" height="90" as="alternateBounds" />
          </mxGeometry>
        </mxCell>
        <mxCell id="82T3ZSNF6l1PIabwo_do-121" value="Продажи в сети отделений" style="shape=partialRectangle;html=1;whiteSpace=wrap;connectable=0;strokeColor=#666666;overflow=hidden;fillColor=#f5f5f5;top=0;left=0;bottom=0;right=0;pointerEvents=1;fontSize=14;fontColor=#333333;fontStyle=1" parent="82T3ZSNF6l1PIabwo_do-118" vertex="1">
          <mxGeometry x="228" width="115" height="90" as="geometry">
            <mxRectangle width="115" height="90" as="alternateBounds" />
          </mxGeometry>
        </mxCell>
        <mxCell id="82T3ZSNF6l1PIabwo_do-130" value="Digital-оповещения клиентов" style="shape=partialRectangle;html=1;whiteSpace=wrap;connectable=0;strokeColor=#666666;overflow=hidden;fillColor=#f5f5f5;top=0;left=0;bottom=0;right=0;pointerEvents=1;fontSize=14;fontColor=#333333;fontStyle=1" parent="82T3ZSNF6l1PIabwo_do-118" vertex="1">
          <mxGeometry x="343" width="114" height="90" as="geometry">
            <mxRectangle width="114" height="90" as="alternateBounds" />
          </mxGeometry>
        </mxCell>
        <mxCell id="82T3ZSNF6l1PIabwo_do-138" value="Обслуживание депозитных процессов" style="shape=partialRectangle;html=1;whiteSpace=wrap;connectable=0;strokeColor=#666666;overflow=hidden;fillColor=#f5f5f5;top=0;left=0;bottom=0;right=0;pointerEvents=1;fontSize=14;fontColor=#333333;fontStyle=1" parent="82T3ZSNF6l1PIabwo_do-118" vertex="1">
          <mxGeometry x="457" width="115" height="90" as="geometry">
            <mxRectangle width="115" height="90" as="alternateBounds" />
          </mxGeometry>
        </mxCell>
        <mxCell id="82T3ZSNF6l1PIabwo_do-142" value="Обслуживание кредитных процессов" style="shape=partialRectangle;html=1;whiteSpace=wrap;connectable=0;strokeColor=#666666;overflow=hidden;fillColor=#f5f5f5;top=0;left=0;bottom=0;right=0;pointerEvents=1;fontSize=14;fontColor=#333333;fontStyle=1" parent="82T3ZSNF6l1PIabwo_do-118" vertex="1">
          <mxGeometry x="572" width="113" height="90" as="geometry">
            <mxRectangle width="113" height="90" as="alternateBounds" />
          </mxGeometry>
        </mxCell>
        <mxCell id="82T3ZSNF6l1PIabwo_do-146" value="Управление договорами" style="shape=partialRectangle;html=1;whiteSpace=wrap;connectable=0;strokeColor=#666666;overflow=hidden;fillColor=#f5f5f5;top=0;left=0;bottom=0;right=0;pointerEvents=1;fontSize=14;fontColor=#333333;fontStyle=1" parent="82T3ZSNF6l1PIabwo_do-118" vertex="1">
          <mxGeometry x="685" width="115" height="90" as="geometry">
            <mxRectangle width="115" height="90" as="alternateBounds" />
          </mxGeometry>
        </mxCell>
        <mxCell id="82T3ZSNF6l1PIabwo_do-122" value="" style="shape=tableRow;horizontal=0;startSize=0;swimlaneHead=0;swimlaneBody=0;strokeColor=inherit;top=0;left=0;bottom=0;right=0;collapsible=0;dropTarget=0;fillColor=none;points=[[0,0.5],[1,0.5]];portConstraint=eastwest;fontSize=16;" parent="82T3ZSNF6l1PIabwo_do-117" vertex="1">
          <mxGeometry y="90" width="800" height="90" as="geometry" />
        </mxCell>
        <mxCell id="82T3ZSNF6l1PIabwo_do-123" value="Управление обслуживанием в сети отделений" style="shape=partialRectangle;connectable=0;strokeColor=#666666;overflow=hidden;fillColor=#f5f5f5;top=0;left=0;bottom=0;right=0;pointerEvents=1;fontSize=13;fontColor=#333333;whiteSpace=wrap;html=1;labelPosition=center;verticalLabelPosition=middle;align=center;verticalAlign=middle;fontStyle=1" parent="82T3ZSNF6l1PIabwo_do-122" vertex="1">
          <mxGeometry width="115" height="90" as="geometry">
            <mxRectangle width="115" height="90" as="alternateBounds" />
          </mxGeometry>
        </mxCell>
        <mxCell id="82T3ZSNF6l1PIabwo_do-124" value="" style="shape=partialRectangle;html=1;whiteSpace=wrap;connectable=0;strokeColor=inherit;overflow=hidden;fillColor=none;top=0;left=0;bottom=0;right=0;pointerEvents=1;fontSize=16;" parent="82T3ZSNF6l1PIabwo_do-122" vertex="1">
          <mxGeometry x="115" width="113" height="90" as="geometry">
            <mxRectangle width="113" height="90" as="alternateBounds" />
          </mxGeometry>
        </mxCell>
        <mxCell id="82T3ZSNF6l1PIabwo_do-125" value="" style="shape=partialRectangle;html=1;whiteSpace=wrap;connectable=0;strokeColor=inherit;overflow=hidden;fillColor=none;top=0;left=0;bottom=0;right=0;pointerEvents=1;fontSize=16;" parent="82T3ZSNF6l1PIabwo_do-122" vertex="1">
          <mxGeometry x="228" width="115" height="90" as="geometry">
            <mxRectangle width="115" height="90" as="alternateBounds" />
          </mxGeometry>
        </mxCell>
        <mxCell id="82T3ZSNF6l1PIabwo_do-131" style="shape=partialRectangle;html=1;whiteSpace=wrap;connectable=0;strokeColor=inherit;overflow=hidden;fillColor=none;top=0;left=0;bottom=0;right=0;pointerEvents=1;fontSize=16;" parent="82T3ZSNF6l1PIabwo_do-122" vertex="1">
          <mxGeometry x="343" width="114" height="90" as="geometry">
            <mxRectangle width="114" height="90" as="alternateBounds" />
          </mxGeometry>
        </mxCell>
        <mxCell id="82T3ZSNF6l1PIabwo_do-139" style="shape=partialRectangle;html=1;whiteSpace=wrap;connectable=0;strokeColor=inherit;overflow=hidden;fillColor=none;top=0;left=0;bottom=0;right=0;pointerEvents=1;fontSize=16;" parent="82T3ZSNF6l1PIabwo_do-122" vertex="1">
          <mxGeometry x="457" width="115" height="90" as="geometry">
            <mxRectangle width="115" height="90" as="alternateBounds" />
          </mxGeometry>
        </mxCell>
        <mxCell id="82T3ZSNF6l1PIabwo_do-143" style="shape=partialRectangle;html=1;whiteSpace=wrap;connectable=0;strokeColor=inherit;overflow=hidden;fillColor=none;top=0;left=0;bottom=0;right=0;pointerEvents=1;fontSize=16;" parent="82T3ZSNF6l1PIabwo_do-122" vertex="1">
          <mxGeometry x="572" width="113" height="90" as="geometry">
            <mxRectangle width="113" height="90" as="alternateBounds" />
          </mxGeometry>
        </mxCell>
        <mxCell id="82T3ZSNF6l1PIabwo_do-147" style="shape=partialRectangle;html=1;whiteSpace=wrap;connectable=0;strokeColor=inherit;overflow=hidden;fillColor=none;top=0;left=0;bottom=0;right=0;pointerEvents=1;fontSize=16;" parent="82T3ZSNF6l1PIabwo_do-122" vertex="1">
          <mxGeometry x="685" width="115" height="90" as="geometry">
            <mxRectangle width="115" height="90" as="alternateBounds" />
          </mxGeometry>
        </mxCell>
        <mxCell id="82T3ZSNF6l1PIabwo_do-126" value="" style="shape=tableRow;horizontal=0;startSize=0;swimlaneHead=0;swimlaneBody=0;strokeColor=inherit;top=0;left=0;bottom=0;right=0;collapsible=0;dropTarget=0;fillColor=none;points=[[0,0.5],[1,0.5]];portConstraint=eastwest;fontSize=16;" parent="82T3ZSNF6l1PIabwo_do-117" vertex="1">
          <mxGeometry y="180" width="800" height="90" as="geometry" />
        </mxCell>
        <mxCell id="82T3ZSNF6l1PIabwo_do-127" value="IT-отдел" style="shape=partialRectangle;html=1;whiteSpace=wrap;connectable=0;strokeColor=#666666;overflow=hidden;fillColor=#f5f5f5;top=0;left=0;bottom=0;right=0;pointerEvents=1;fontSize=13;fontColor=#333333;fontStyle=1" parent="82T3ZSNF6l1PIabwo_do-126" vertex="1">
          <mxGeometry width="115" height="90" as="geometry">
            <mxRectangle width="115" height="90" as="alternateBounds" />
          </mxGeometry>
        </mxCell>
        <mxCell id="82T3ZSNF6l1PIabwo_do-128" value="" style="shape=partialRectangle;html=1;whiteSpace=wrap;connectable=0;strokeColor=inherit;overflow=hidden;fillColor=none;top=0;left=0;bottom=0;right=0;pointerEvents=1;fontSize=16;" parent="82T3ZSNF6l1PIabwo_do-126" vertex="1">
          <mxGeometry x="115" width="113" height="90" as="geometry">
            <mxRectangle width="113" height="90" as="alternateBounds" />
          </mxGeometry>
        </mxCell>
        <mxCell id="82T3ZSNF6l1PIabwo_do-129" value="" style="shape=partialRectangle;html=1;whiteSpace=wrap;connectable=0;strokeColor=inherit;overflow=hidden;fillColor=none;top=0;left=0;bottom=0;right=0;pointerEvents=1;fontSize=16;" parent="82T3ZSNF6l1PIabwo_do-126" vertex="1">
          <mxGeometry x="228" width="115" height="90" as="geometry">
            <mxRectangle width="115" height="90" as="alternateBounds" />
          </mxGeometry>
        </mxCell>
        <mxCell id="82T3ZSNF6l1PIabwo_do-132" style="shape=partialRectangle;html=1;whiteSpace=wrap;connectable=0;strokeColor=inherit;overflow=hidden;fillColor=none;top=0;left=0;bottom=0;right=0;pointerEvents=1;fontSize=16;" parent="82T3ZSNF6l1PIabwo_do-126" vertex="1">
          <mxGeometry x="343" width="114" height="90" as="geometry">
            <mxRectangle width="114" height="90" as="alternateBounds" />
          </mxGeometry>
        </mxCell>
        <mxCell id="82T3ZSNF6l1PIabwo_do-140" style="shape=partialRectangle;html=1;whiteSpace=wrap;connectable=0;strokeColor=inherit;overflow=hidden;fillColor=none;top=0;left=0;bottom=0;right=0;pointerEvents=1;fontSize=16;" parent="82T3ZSNF6l1PIabwo_do-126" vertex="1">
          <mxGeometry x="457" width="115" height="90" as="geometry">
            <mxRectangle width="115" height="90" as="alternateBounds" />
          </mxGeometry>
        </mxCell>
        <mxCell id="82T3ZSNF6l1PIabwo_do-144" style="shape=partialRectangle;html=1;whiteSpace=wrap;connectable=0;strokeColor=inherit;overflow=hidden;fillColor=none;top=0;left=0;bottom=0;right=0;pointerEvents=1;fontSize=16;" parent="82T3ZSNF6l1PIabwo_do-126" vertex="1">
          <mxGeometry x="572" width="113" height="90" as="geometry">
            <mxRectangle width="113" height="90" as="alternateBounds" />
          </mxGeometry>
        </mxCell>
        <mxCell id="82T3ZSNF6l1PIabwo_do-148" style="shape=partialRectangle;html=1;whiteSpace=wrap;connectable=0;strokeColor=inherit;overflow=hidden;fillColor=none;top=0;left=0;bottom=0;right=0;pointerEvents=1;fontSize=16;" parent="82T3ZSNF6l1PIabwo_do-126" vertex="1">
          <mxGeometry x="685" width="115" height="90" as="geometry">
            <mxRectangle width="115" height="90" as="alternateBounds" />
          </mxGeometry>
        </mxCell>
        <mxCell id="82T3ZSNF6l1PIabwo_do-133" style="shape=tableRow;horizontal=0;startSize=0;swimlaneHead=0;swimlaneBody=0;strokeColor=inherit;top=0;left=0;bottom=0;right=0;collapsible=0;dropTarget=0;fillColor=none;points=[[0,0.5],[1,0.5]];portConstraint=eastwest;fontSize=16;" parent="82T3ZSNF6l1PIabwo_do-117" vertex="1">
          <mxGeometry y="270" width="800" height="90" as="geometry" />
        </mxCell>
        <mxCell id="82T3ZSNF6l1PIabwo_do-134" value="Управление обслуживанием кредитных продуктов" style="shape=partialRectangle;html=1;whiteSpace=wrap;connectable=0;strokeColor=#666666;overflow=hidden;fillColor=#f5f5f5;top=0;left=0;bottom=0;right=0;pointerEvents=1;fontSize=13;fontColor=#333333;fontStyle=1" parent="82T3ZSNF6l1PIabwo_do-133" vertex="1">
          <mxGeometry width="115" height="90" as="geometry">
            <mxRectangle width="115" height="90" as="alternateBounds" />
          </mxGeometry>
        </mxCell>
        <mxCell id="82T3ZSNF6l1PIabwo_do-135" style="shape=partialRectangle;html=1;whiteSpace=wrap;connectable=0;strokeColor=inherit;overflow=hidden;fillColor=none;top=0;left=0;bottom=0;right=0;pointerEvents=1;fontSize=16;" parent="82T3ZSNF6l1PIabwo_do-133" vertex="1">
          <mxGeometry x="115" width="113" height="90" as="geometry">
            <mxRectangle width="113" height="90" as="alternateBounds" />
          </mxGeometry>
        </mxCell>
        <mxCell id="82T3ZSNF6l1PIabwo_do-136" style="shape=partialRectangle;html=1;whiteSpace=wrap;connectable=0;strokeColor=inherit;overflow=hidden;fillColor=none;top=0;left=0;bottom=0;right=0;pointerEvents=1;fontSize=16;" parent="82T3ZSNF6l1PIabwo_do-133" vertex="1">
          <mxGeometry x="228" width="115" height="90" as="geometry">
            <mxRectangle width="115" height="90" as="alternateBounds" />
          </mxGeometry>
        </mxCell>
        <mxCell id="82T3ZSNF6l1PIabwo_do-137" style="shape=partialRectangle;html=1;whiteSpace=wrap;connectable=0;strokeColor=inherit;overflow=hidden;fillColor=none;top=0;left=0;bottom=0;right=0;pointerEvents=1;fontSize=16;" parent="82T3ZSNF6l1PIabwo_do-133" vertex="1">
          <mxGeometry x="343" width="114" height="90" as="geometry">
            <mxRectangle width="114" height="90" as="alternateBounds" />
          </mxGeometry>
        </mxCell>
        <mxCell id="82T3ZSNF6l1PIabwo_do-141" style="shape=partialRectangle;html=1;whiteSpace=wrap;connectable=0;strokeColor=inherit;overflow=hidden;fillColor=none;top=0;left=0;bottom=0;right=0;pointerEvents=1;fontSize=16;" parent="82T3ZSNF6l1PIabwo_do-133" vertex="1">
          <mxGeometry x="457" width="115" height="90" as="geometry">
            <mxRectangle width="115" height="90" as="alternateBounds" />
          </mxGeometry>
        </mxCell>
        <mxCell id="82T3ZSNF6l1PIabwo_do-145" style="shape=partialRectangle;html=1;whiteSpace=wrap;connectable=0;strokeColor=inherit;overflow=hidden;fillColor=none;top=0;left=0;bottom=0;right=0;pointerEvents=1;fontSize=16;" parent="82T3ZSNF6l1PIabwo_do-133" vertex="1">
          <mxGeometry x="572" width="113" height="90" as="geometry">
            <mxRectangle width="113" height="90" as="alternateBounds" />
          </mxGeometry>
        </mxCell>
        <mxCell id="82T3ZSNF6l1PIabwo_do-149" style="shape=partialRectangle;html=1;whiteSpace=wrap;connectable=0;strokeColor=inherit;overflow=hidden;fillColor=none;top=0;left=0;bottom=0;right=0;pointerEvents=1;fontSize=16;" parent="82T3ZSNF6l1PIabwo_do-133" vertex="1">
          <mxGeometry x="685" width="115" height="90" as="geometry">
            <mxRectangle width="115" height="90" as="alternateBounds" />
          </mxGeometry>
        </mxCell>
        <mxCell id="82T3ZSNF6l1PIabwo_do-150" style="shape=tableRow;horizontal=0;startSize=0;swimlaneHead=0;swimlaneBody=0;strokeColor=inherit;top=0;left=0;bottom=0;right=0;collapsible=0;dropTarget=0;fillColor=none;points=[[0,0.5],[1,0.5]];portConstraint=eastwest;fontSize=16;" parent="82T3ZSNF6l1PIabwo_do-117" vertex="1">
          <mxGeometry y="360" width="800" height="90" as="geometry" />
        </mxCell>
        <mxCell id="82T3ZSNF6l1PIabwo_do-151" value="Управление обслуживанием депозитных продуктов" style="shape=partialRectangle;html=1;whiteSpace=wrap;connectable=0;strokeColor=#666666;overflow=hidden;fillColor=#f5f5f5;top=0;left=0;bottom=0;right=0;pointerEvents=1;fontSize=13;fontColor=#333333;fontStyle=1" parent="82T3ZSNF6l1PIabwo_do-150" vertex="1">
          <mxGeometry width="115" height="90" as="geometry">
            <mxRectangle width="115" height="90" as="alternateBounds" />
          </mxGeometry>
        </mxCell>
        <mxCell id="82T3ZSNF6l1PIabwo_do-152" style="shape=partialRectangle;html=1;whiteSpace=wrap;connectable=0;strokeColor=inherit;overflow=hidden;fillColor=none;top=0;left=0;bottom=0;right=0;pointerEvents=1;fontSize=16;" parent="82T3ZSNF6l1PIabwo_do-150" vertex="1">
          <mxGeometry x="115" width="113" height="90" as="geometry">
            <mxRectangle width="113" height="90" as="alternateBounds" />
          </mxGeometry>
        </mxCell>
        <mxCell id="82T3ZSNF6l1PIabwo_do-153" style="shape=partialRectangle;html=1;whiteSpace=wrap;connectable=0;strokeColor=inherit;overflow=hidden;fillColor=none;top=0;left=0;bottom=0;right=0;pointerEvents=1;fontSize=16;" parent="82T3ZSNF6l1PIabwo_do-150" vertex="1">
          <mxGeometry x="228" width="115" height="90" as="geometry">
            <mxRectangle width="115" height="90" as="alternateBounds" />
          </mxGeometry>
        </mxCell>
        <mxCell id="82T3ZSNF6l1PIabwo_do-154" style="shape=partialRectangle;html=1;whiteSpace=wrap;connectable=0;strokeColor=inherit;overflow=hidden;fillColor=none;top=0;left=0;bottom=0;right=0;pointerEvents=1;fontSize=16;" parent="82T3ZSNF6l1PIabwo_do-150" vertex="1">
          <mxGeometry x="343" width="114" height="90" as="geometry">
            <mxRectangle width="114" height="90" as="alternateBounds" />
          </mxGeometry>
        </mxCell>
        <mxCell id="82T3ZSNF6l1PIabwo_do-155" style="shape=partialRectangle;html=1;whiteSpace=wrap;connectable=0;strokeColor=inherit;overflow=hidden;fillColor=none;top=0;left=0;bottom=0;right=0;pointerEvents=1;fontSize=16;" parent="82T3ZSNF6l1PIabwo_do-150" vertex="1">
          <mxGeometry x="457" width="115" height="90" as="geometry">
            <mxRectangle width="115" height="90" as="alternateBounds" />
          </mxGeometry>
        </mxCell>
        <mxCell id="82T3ZSNF6l1PIabwo_do-156" style="shape=partialRectangle;html=1;whiteSpace=wrap;connectable=0;strokeColor=inherit;overflow=hidden;fillColor=none;top=0;left=0;bottom=0;right=0;pointerEvents=1;fontSize=16;" parent="82T3ZSNF6l1PIabwo_do-150" vertex="1">
          <mxGeometry x="572" width="113" height="90" as="geometry">
            <mxRectangle width="113" height="90" as="alternateBounds" />
          </mxGeometry>
        </mxCell>
        <mxCell id="82T3ZSNF6l1PIabwo_do-157" style="shape=partialRectangle;html=1;whiteSpace=wrap;connectable=0;strokeColor=inherit;overflow=hidden;fillColor=none;top=0;left=0;bottom=0;right=0;pointerEvents=1;fontSize=16;" parent="82T3ZSNF6l1PIabwo_do-150" vertex="1">
          <mxGeometry x="685" width="115" height="90" as="geometry">
            <mxRectangle width="115" height="90" as="alternateBounds" />
          </mxGeometry>
        </mxCell>
        <mxCell id="82T3ZSNF6l1PIabwo_do-158" style="shape=tableRow;horizontal=0;startSize=0;swimlaneHead=0;swimlaneBody=0;strokeColor=inherit;top=0;left=0;bottom=0;right=0;collapsible=0;dropTarget=0;fillColor=none;points=[[0,0.5],[1,0.5]];portConstraint=eastwest;fontSize=16;" parent="82T3ZSNF6l1PIabwo_do-117" vertex="1">
          <mxGeometry y="450" width="800" height="90" as="geometry" />
        </mxCell>
        <mxCell id="82T3ZSNF6l1PIabwo_do-159" value="Кол-центр" style="shape=partialRectangle;html=1;whiteSpace=wrap;connectable=0;strokeColor=#000000;overflow=hidden;fillColor=#f5f5f5;top=0;left=0;bottom=0;right=0;pointerEvents=1;fontSize=13;fontColor=#333333;strokeWidth=5;labelBorderColor=none;fontStyle=1" parent="82T3ZSNF6l1PIabwo_do-158" vertex="1">
          <mxGeometry width="115" height="90" as="geometry">
            <mxRectangle width="115" height="90" as="alternateBounds" />
          </mxGeometry>
        </mxCell>
        <mxCell id="82T3ZSNF6l1PIabwo_do-160" style="shape=partialRectangle;html=1;whiteSpace=wrap;connectable=0;strokeColor=inherit;overflow=hidden;fillColor=none;top=0;left=0;bottom=0;right=0;pointerEvents=1;fontSize=16;" parent="82T3ZSNF6l1PIabwo_do-158" vertex="1">
          <mxGeometry x="115" width="113" height="90" as="geometry">
            <mxRectangle width="113" height="90" as="alternateBounds" />
          </mxGeometry>
        </mxCell>
        <mxCell id="82T3ZSNF6l1PIabwo_do-161" style="shape=partialRectangle;html=1;whiteSpace=wrap;connectable=0;strokeColor=inherit;overflow=hidden;fillColor=none;top=0;left=0;bottom=0;right=0;pointerEvents=1;fontSize=16;" parent="82T3ZSNF6l1PIabwo_do-158" vertex="1">
          <mxGeometry x="228" width="115" height="90" as="geometry">
            <mxRectangle width="115" height="90" as="alternateBounds" />
          </mxGeometry>
        </mxCell>
        <mxCell id="82T3ZSNF6l1PIabwo_do-162" style="shape=partialRectangle;html=1;whiteSpace=wrap;connectable=0;strokeColor=inherit;overflow=hidden;fillColor=none;top=0;left=0;bottom=0;right=0;pointerEvents=1;fontSize=16;" parent="82T3ZSNF6l1PIabwo_do-158" vertex="1">
          <mxGeometry x="343" width="114" height="90" as="geometry">
            <mxRectangle width="114" height="90" as="alternateBounds" />
          </mxGeometry>
        </mxCell>
        <mxCell id="82T3ZSNF6l1PIabwo_do-163" style="shape=partialRectangle;html=1;whiteSpace=wrap;connectable=0;strokeColor=inherit;overflow=hidden;fillColor=none;top=0;left=0;bottom=0;right=0;pointerEvents=1;fontSize=16;" parent="82T3ZSNF6l1PIabwo_do-158" vertex="1">
          <mxGeometry x="457" width="115" height="90" as="geometry">
            <mxRectangle width="115" height="90" as="alternateBounds" />
          </mxGeometry>
        </mxCell>
        <mxCell id="82T3ZSNF6l1PIabwo_do-164" value="" style="shape=partialRectangle;html=1;whiteSpace=wrap;connectable=0;strokeColor=inherit;overflow=hidden;fillColor=none;top=0;left=0;bottom=0;right=0;pointerEvents=1;fontSize=16;" parent="82T3ZSNF6l1PIabwo_do-158" vertex="1">
          <mxGeometry x="572" width="113" height="90" as="geometry">
            <mxRectangle width="113" height="90" as="alternateBounds" />
          </mxGeometry>
        </mxCell>
        <mxCell id="82T3ZSNF6l1PIabwo_do-165" style="shape=partialRectangle;html=1;whiteSpace=wrap;connectable=0;strokeColor=inherit;overflow=hidden;fillColor=none;top=0;left=0;bottom=0;right=0;pointerEvents=1;fontSize=16;" parent="82T3ZSNF6l1PIabwo_do-158" vertex="1">
          <mxGeometry x="685" width="115" height="90" as="geometry">
            <mxRectangle width="115" height="90" as="alternateBounds" />
          </mxGeometry>
        </mxCell>
        <mxCell id="82T3ZSNF6l1PIabwo_do-166" style="shape=tableRow;horizontal=0;startSize=0;swimlaneHead=0;swimlaneBody=0;strokeColor=inherit;top=0;left=0;bottom=0;right=0;collapsible=0;dropTarget=0;fillColor=none;points=[[0,0.5],[1,0.5]];portConstraint=eastwest;fontSize=16;" parent="82T3ZSNF6l1PIabwo_do-117" vertex="1">
          <mxGeometry y="540" width="800" height="90" as="geometry" />
        </mxCell>
        <mxCell id="82T3ZSNF6l1PIabwo_do-167" value="Команда цифровой трансформации розничного бизнеса" style="shape=partialRectangle;html=1;whiteSpace=wrap;connectable=0;strokeColor=default;overflow=hidden;fillColor=#f5f5f5;top=0;left=0;bottom=0;right=0;pointerEvents=1;fontSize=13;fontColor=#333333;gradientColor=none;fontStyle=1" parent="82T3ZSNF6l1PIabwo_do-166" vertex="1">
          <mxGeometry width="115" height="90" as="geometry">
            <mxRectangle width="115" height="90" as="alternateBounds" />
          </mxGeometry>
        </mxCell>
        <mxCell id="82T3ZSNF6l1PIabwo_do-168" style="shape=partialRectangle;html=1;whiteSpace=wrap;connectable=0;strokeColor=inherit;overflow=hidden;fillColor=none;top=0;left=0;bottom=0;right=0;pointerEvents=1;fontSize=16;" parent="82T3ZSNF6l1PIabwo_do-166" vertex="1">
          <mxGeometry x="115" width="113" height="90" as="geometry">
            <mxRectangle width="113" height="90" as="alternateBounds" />
          </mxGeometry>
        </mxCell>
        <mxCell id="82T3ZSNF6l1PIabwo_do-169" style="shape=partialRectangle;html=1;whiteSpace=wrap;connectable=0;strokeColor=inherit;overflow=hidden;fillColor=none;top=0;left=0;bottom=0;right=0;pointerEvents=1;fontSize=16;" parent="82T3ZSNF6l1PIabwo_do-166" vertex="1">
          <mxGeometry x="228" width="115" height="90" as="geometry">
            <mxRectangle width="115" height="90" as="alternateBounds" />
          </mxGeometry>
        </mxCell>
        <mxCell id="82T3ZSNF6l1PIabwo_do-170" style="shape=partialRectangle;html=1;whiteSpace=wrap;connectable=0;strokeColor=inherit;overflow=hidden;fillColor=none;top=0;left=0;bottom=0;right=0;pointerEvents=1;fontSize=16;" parent="82T3ZSNF6l1PIabwo_do-166" vertex="1">
          <mxGeometry x="343" width="114" height="90" as="geometry">
            <mxRectangle width="114" height="90" as="alternateBounds" />
          </mxGeometry>
        </mxCell>
        <mxCell id="82T3ZSNF6l1PIabwo_do-171" style="shape=partialRectangle;html=1;whiteSpace=wrap;connectable=0;strokeColor=inherit;overflow=hidden;fillColor=none;top=0;left=0;bottom=0;right=0;pointerEvents=1;fontSize=16;" parent="82T3ZSNF6l1PIabwo_do-166" vertex="1">
          <mxGeometry x="457" width="115" height="90" as="geometry">
            <mxRectangle width="115" height="90" as="alternateBounds" />
          </mxGeometry>
        </mxCell>
        <mxCell id="82T3ZSNF6l1PIabwo_do-172" style="shape=partialRectangle;html=1;whiteSpace=wrap;connectable=0;strokeColor=inherit;overflow=hidden;fillColor=none;top=0;left=0;bottom=0;right=0;pointerEvents=1;fontSize=16;" parent="82T3ZSNF6l1PIabwo_do-166" vertex="1">
          <mxGeometry x="572" width="113" height="90" as="geometry">
            <mxRectangle width="113" height="90" as="alternateBounds" />
          </mxGeometry>
        </mxCell>
        <mxCell id="82T3ZSNF6l1PIabwo_do-173" style="shape=partialRectangle;html=1;whiteSpace=wrap;connectable=0;strokeColor=inherit;overflow=hidden;fillColor=none;top=0;left=0;bottom=0;right=0;pointerEvents=1;fontSize=16;" parent="82T3ZSNF6l1PIabwo_do-166" vertex="1">
          <mxGeometry x="685" width="115" height="90" as="geometry">
            <mxRectangle width="115" height="90" as="alternateBounds" />
          </mxGeometry>
        </mxCell>
        <mxCell id="kWCGh7zm6kldLwVHwoDs-1" style="shape=tableRow;horizontal=0;startSize=0;swimlaneHead=0;swimlaneBody=0;strokeColor=inherit;top=0;left=0;bottom=0;right=0;collapsible=0;dropTarget=0;fillColor=none;points=[[0,0.5],[1,0.5]];portConstraint=eastwest;fontSize=16;" parent="82T3ZSNF6l1PIabwo_do-117" vertex="1">
          <mxGeometry y="630" width="800" height="90" as="geometry" />
        </mxCell>
        <mxCell id="kWCGh7zm6kldLwVHwoDs-2" value="Партнерский кол-центр" style="shape=partialRectangle;html=1;whiteSpace=wrap;connectable=0;strokeColor=default;overflow=hidden;fillColor=#f5f5f5;top=0;left=0;bottom=0;right=0;pointerEvents=1;fontSize=13;fontColor=#333333;gradientColor=none;fontStyle=1" parent="kWCGh7zm6kldLwVHwoDs-1" vertex="1">
          <mxGeometry width="115" height="90" as="geometry">
            <mxRectangle width="115" height="90" as="alternateBounds" />
          </mxGeometry>
        </mxCell>
        <mxCell id="kWCGh7zm6kldLwVHwoDs-3" style="shape=partialRectangle;html=1;whiteSpace=wrap;connectable=0;strokeColor=inherit;overflow=hidden;fillColor=none;top=0;left=0;bottom=0;right=0;pointerEvents=1;fontSize=16;" parent="kWCGh7zm6kldLwVHwoDs-1" vertex="1">
          <mxGeometry x="115" width="113" height="90" as="geometry">
            <mxRectangle width="113" height="90" as="alternateBounds" />
          </mxGeometry>
        </mxCell>
        <mxCell id="kWCGh7zm6kldLwVHwoDs-4" style="shape=partialRectangle;html=1;whiteSpace=wrap;connectable=0;strokeColor=inherit;overflow=hidden;fillColor=none;top=0;left=0;bottom=0;right=0;pointerEvents=1;fontSize=16;" parent="kWCGh7zm6kldLwVHwoDs-1" vertex="1">
          <mxGeometry x="228" width="115" height="90" as="geometry">
            <mxRectangle width="115" height="90" as="alternateBounds" />
          </mxGeometry>
        </mxCell>
        <mxCell id="kWCGh7zm6kldLwVHwoDs-5" style="shape=partialRectangle;html=1;whiteSpace=wrap;connectable=0;strokeColor=inherit;overflow=hidden;fillColor=none;top=0;left=0;bottom=0;right=0;pointerEvents=1;fontSize=16;" parent="kWCGh7zm6kldLwVHwoDs-1" vertex="1">
          <mxGeometry x="343" width="114" height="90" as="geometry">
            <mxRectangle width="114" height="90" as="alternateBounds" />
          </mxGeometry>
        </mxCell>
        <mxCell id="kWCGh7zm6kldLwVHwoDs-6" style="shape=partialRectangle;html=1;whiteSpace=wrap;connectable=0;strokeColor=inherit;overflow=hidden;fillColor=none;top=0;left=0;bottom=0;right=0;pointerEvents=1;fontSize=16;" parent="kWCGh7zm6kldLwVHwoDs-1" vertex="1">
          <mxGeometry x="457" width="115" height="90" as="geometry">
            <mxRectangle width="115" height="90" as="alternateBounds" />
          </mxGeometry>
        </mxCell>
        <mxCell id="kWCGh7zm6kldLwVHwoDs-7" style="shape=partialRectangle;html=1;whiteSpace=wrap;connectable=0;strokeColor=inherit;overflow=hidden;fillColor=none;top=0;left=0;bottom=0;right=0;pointerEvents=1;fontSize=16;" parent="kWCGh7zm6kldLwVHwoDs-1" vertex="1">
          <mxGeometry x="572" width="113" height="90" as="geometry">
            <mxRectangle width="113" height="90" as="alternateBounds" />
          </mxGeometry>
        </mxCell>
        <mxCell id="kWCGh7zm6kldLwVHwoDs-8" style="shape=partialRectangle;html=1;whiteSpace=wrap;connectable=0;strokeColor=inherit;overflow=hidden;fillColor=none;top=0;left=0;bottom=0;right=0;pointerEvents=1;fontSize=16;" parent="kWCGh7zm6kldLwVHwoDs-1" vertex="1">
          <mxGeometry x="685" width="115" height="90" as="geometry">
            <mxRectangle width="115" height="90" as="alternateBounds" />
          </mxGeometry>
        </mxCell>
        <mxCell id="82T3ZSNF6l1PIabwo_do-238" value="Система кол-центра" style="whiteSpace=wrap;html=1;aspect=fixed;fillColor=#dae8fc;strokeColor=#6c8ebf;fontStyle=1" parent="1" vertex="1">
          <mxGeometry x="140" y="474" width="80" height="80" as="geometry" />
        </mxCell>
        <mxCell id="PAbGNccVBmPqCvnWcqHl-3" value="&lt;b&gt;АБС&lt;/b&gt;" style="rounded=0;whiteSpace=wrap;html=1;fillColor=#dae8fc;strokeColor=#6c8ebf;" vertex="1" parent="1">
          <mxGeometry x="140" y="125" width="660" height="335" as="geometry" />
        </mxCell>
        <mxCell id="PAbGNccVBmPqCvnWcqHl-4" value="Система кол-центра" style="whiteSpace=wrap;html=1;aspect=fixed;fillColor=#dae8fc;strokeColor=#6c8ebf;fontStyle=1" vertex="1" parent="1">
          <mxGeometry x="490" y="380" width="80" height="80" as="geometry" />
        </mxCell>
        <mxCell id="PAbGNccVBmPqCvnWcqHl-5" value="СМС-шлюз телеком оператора" style="whiteSpace=wrap;html=1;aspect=fixed;fillColor=#dae8fc;strokeColor=#6c8ebf;fontStyle=1" vertex="1" parent="1">
          <mxGeometry x="374" y="200" width="80" height="80" as="geometry" />
        </mxCell>
      </root>
    </mxGraphModel>
  </diagram>
</mxfile>
